<svg width="183" height="56" viewBox="0 0 183 56" fill="none" xmlns="http://www.w3.org/2000/svg">
<path d="M160.5 45.375L167.25 36.375C165.375 34.9688 163.031 34.125 160.5 34.125C157.969 34.125 155.625 34.9688 153.75 36.375L160.5 45.375Z" fill="white"/>
<path d="M160.5 22.875C155.437 22.875 150.769 24.5437 147 27.375L150.375 31.875C153.187 29.7562 156.694 28.5 160.5 28.5C164.306 28.5 167.812 29.7562 170.625 31.875L174 27.375C170.231 24.5437 165.562 22.875 160.5 22.875Z" fill="white"/>
<path d="M160.5 11.625C152.906 11.625 145.894 14.1375 140.25 18.375L143.625 22.875C148.312 19.35 154.163 17.25 160.5 17.25C166.838 17.25 172.687 19.35 177.375 22.875L180.75 18.375C175.106 14.1375 168.094 11.625 160.5 11.625Z" fill="white"/>
<path d="M4.23 44V12.5H17.19C19.98 12.5 22.365 12.95 24.345 13.85C26.355 14.75 27.9 16.04 28.98 17.72C30.06 19.4 30.6 21.395 30.6 23.705C30.6 26.015 30.06 28.01 28.98 29.69C27.9 31.37 26.355 32.66 24.345 33.56C22.365 34.46 19.98 34.91 17.19 34.91H7.47L10.08 32.165V44H4.23ZM10.08 32.795L7.47 29.96H16.92C19.5 29.96 21.435 29.42 22.725 28.34C24.045 27.23 24.705 25.685 24.705 23.705C24.705 21.695 24.045 20.15 22.725 19.07C21.435 17.99 19.5 17.45 16.92 17.45H7.47L10.08 14.57V32.795ZM36.4419 44V12.5H42.2919V39.05H58.7619V44H36.4419ZM76.4859 44.45C72.1659 44.45 68.7759 43.235 66.3159 40.805C63.8859 38.375 62.6709 34.865 62.6709 30.275V12.5H68.5209V30.05C68.5209 33.29 69.2109 35.645 70.5909 37.115C72.0009 38.585 73.9809 39.32 76.5309 39.32C79.0809 39.32 81.0459 38.585 82.4259 37.115C83.8059 35.645 84.4959 33.29 84.4959 30.05V12.5H90.2559V30.275C90.2559 34.865 89.0259 38.375 86.5659 40.805C84.1359 43.235 80.7759 44.45 76.4859 44.45ZM120.589 12.5H126.439V44H120.589V12.5ZM104.299 44H98.4488V12.5H104.299V44ZM121.039 30.5H103.804V25.505H121.039V30.5Z" fill="white"/>
</svg>
